<svg xmlns="http://www.w3.org/2000/svg" viewBox="0 0 600 800" width="600" height="800">
  <defs>
    <linearGradient id="bg-andhkar" x1="0" y1="0" x2="0" y2="1">
      <stop offset="0%" stop-color="#18181B"/>
      <stop offset="50%" stop-color="#111113"/>
      <stop offset="100%" stop-color="#09090B"/>
    </linearGradient>
  </defs>
  <rect width="600" height="800" rx="32" fill="url(#bg-andhkar)"/>
  <rect x="24" y="24" width="552" height="752" rx="20" fill="none" stroke="#71717A" stroke-width="1.5" stroke-opacity="0.35"/>
  <circle cx="36" cy="36" r="3" fill="#A1A1AA" opacity="0.5"/>
  <circle cx="564" cy="36" r="3" fill="#A1A1AA" opacity="0.5"/>
  <circle cx="36" cy="764" r="3" fill="#A1A1AA" opacity="0.5"/>
  <circle cx="564" cy="764" r="3" fill="#A1A1AA" opacity="0.5"/>
  
  <g transform="translate(300, 75)">
    <rect x="-80" y="-14" width="160" height="28" rx="14" fill="#27272A" fill-opacity="0.4" stroke="#71717A" stroke-width="1" stroke-opacity="0.4"/>
    <text text-anchor="middle" y="4" fill="#D4D4D8" font-family="sans-serif" font-size="11" font-weight="600" letter-spacing="3">SHRUTI • ARCHIVE</text>
  </g>

  <g transform="translate(300, 260)">
    <circle cx="0" cy="0" r="30" fill="none" stroke="#A1A1AA" stroke-width="1.5" opacity="0.8"/>
    <circle cx="0" cy="0" r="2" fill="#A1A1AA"/>
  </g>

  <text text-anchor="middle" x="300" y="380" fill="#FAFAFA" font-family="serif" font-size="32" font-weight="bold" letter-spacing="1">अंधकार ध्यान</text>
  <text text-anchor="middle" x="300" y="425" fill="#D4D4D8" font-family="serif" font-size="20" font-weight="600" letter-spacing="2">ANDHKAR DHYAN</text>
  
  <g transform="translate(300, 465)">
    <line x1="-60" y1="0" x2="-8" y2="0" stroke="#A1A1AA" stroke-width="1" opacity="0.5"/>
    <circle cx="0" cy="0" r="2.5" fill="#A1A1AA" opacity="0.7"/>
    <line x1="8" y1="0" x2="60" y2="0" stroke="#A1A1AA" stroke-width="1" opacity="0.5"/>
  </g>

  <text text-anchor="middle" x="300" y="505" fill="#D4D4D8" font-family="serif" font-style="italic" font-size="14" opacity="0.8">Meditation in Pure Darkness</text>

  <g transform="translate(300, 690)">
    <text text-anchor="middle" y="-22" fill="#A1A1AA" font-family="sans-serif" font-size="11" font-weight="600" letter-spacing="3" opacity="0.6">MEDITATION BY</text>
    <text text-anchor="middle" y="2" fill="#FAFAFA" font-family="serif" font-size="20" font-weight="bold" letter-spacing="2">OSHO</text>
    <text text-anchor="middle" y="22" fill="#A1A1AA" font-family="monospace" font-size="10" letter-spacing="3" opacity="0.4">SACRED ARCHIVE</text>
  </g>
</svg>

